<svg width="19.5567" height="19.5567" viewBox="0 0 19.5567 19.5567" fill="none" xmlns="http://www.w3.org/2000/svg">
<path d="M16.2973 10.593C16.2973 14.6673 13.4453 16.7045 10.0554 17.886C9.87793 17.9462 9.68511 17.9433 9.50948 17.8779C6.1115 16.7045 3.25947 14.6673 3.25947 10.593V4.88897C3.25947 4.67286 3.34533 4.46559 3.49814 4.31278C3.65096 4.15996 3.85822 4.07411 4.07434 4.07411C5.70406 4.07411 7.74122 3.09627 9.15909 1.85768C9.33172 1.71019 9.55132 1.62915 9.77838 1.62915C10.0054 1.62915 10.225 1.71019 10.3977 1.85768C11.8237 3.10442 13.8527 4.07411 15.4824 4.07411C15.6985 4.07411 15.9058 4.15996 16.0586 4.31278C16.2114 4.46559 16.2973 4.67286 16.2973 4.88897V10.593Z" stroke="#2C348E" stroke-width="1.62973" stroke-linecap="round" stroke-linejoin="round"/>
<path d="M7.33387 9.77859L8.96359 11.4083L12.223 8.14886" stroke="#2C348E" stroke-width="1.62973" stroke-linecap="round" stroke-linejoin="round"/>
</svg>
